<?xml version="1.0" encoding="UTF-8"?>
<svg id="_Слой_1" data-name="Слой_1" xmlns="http://www.w3.org/2000/svg" version="1.1" viewBox="0 0 566.93 566.93">
  <!-- Generator: Adobe Illustrator 29.4.0, SVG Export Plug-In . SVG Version: 2.1.0 Build 152)  -->
  <defs>
    <style>
      .st0 {
        font-family: NimbusSanL-Bol, 'Nimbus Sans L';
        font-size: 68.67px;
      }

      .st0, .st1, .st2 {
        fill: #023250;
      }

      .st3 {
        fill: #0ccec5;
      }

      .st2 {
        font-family: NimbusSanL-Reg, 'Nimbus Sans L';
        font-size: 18.68px;
        letter-spacing: .6em;
      }
    </style>
  </defs>
  <g>
    <path class="st1" d="M135.61,298.25c-1.42-2.39-3.41-4.5-5.96-6.33-6.12,13.97-20.2,23.69-36.48,23.39-20.95-.38-38-17.49-38.3-38.43-.32-21.79,17.31-39.61,39.03-39.61,6.5,0,12.64,1.6,18.03,4.42,4.69,2.46,10.45,1.49,14.19-2.25,2.4-2.4,3.55-5.49,3.55-8.54,0-4.32-2.29-8.58-6.55-10.81-8.86-4.62-18.93-7.22-29.62-7.15-34.5.21-62.69,28.35-62.97,62.84-.28,35.17,28.25,63.87,63.36,63.87,8.61,0,16.82-1.73,24.31-4.85,8.22-3.43,14.76-9.96,18.33-18.13h0c.1-.24,4.09-9.95-.92-18.43Z"/>
    <path class="st3" d="M142.93,314.83c-1.73,1.57-2.93,2.46-2.93,2.46,0,0,2.76-7.83.38-16.38-3.24-11.65-17.77-22.29-40.57-21.15,0,0,28.37-23.82,48.21-1.93,13.11,14.48,1.53,30.98-5.09,37Z"/>
    <circle class="st3" cx="136.11" cy="255.93" r="11.03"/>
  </g>
  <text class="st0" transform="translate(169.76 288.58)"><tspan x="0" y="0">CAREVION</tspan></text>
  <text class="st2" transform="translate(177.93 315.35)"><tspan x="0" y="0">GLOBAL INC</tspan></text>
</svg>