<?xml version="1.0" encoding="UTF-8"?>
<svg id="_Слой_1" data-name="Слой_1" xmlns="http://www.w3.org/2000/svg" version="1.1" viewBox="0 0 566.93 566.93">
  <!-- Generator: Adobe Illustrator 29.4.0, SVG Export Plug-In . SVG Version: 2.1.0 Build 152)  -->
  <defs>
    <style>
      .st0 {
        fill: #023250;
      }

      .st1 {
        fill: #0ccec5;
      }
    </style>
  </defs>
  <path class="st0" d="M466.59,376.21c-5.99-10.12-14.39-19.03-25.18-26.73-25.87,59.02-85.37,100.09-154.12,98.84-88.5-1.61-160.53-73.9-161.83-162.38-1.37-92.05,73.13-167.37,164.88-167.37,27.46,0,53.39,6.75,76.18,18.68,19.82,10.39,44.15,6.3,59.97-9.52,10.15-10.15,15-23.18,15-36.07,0-18.25-9.68-36.27-27.67-45.66-37.42-19.53-80-30.48-125.13-30.21C142.92,16.67,23.81,135.55,22.64,281.31c-1.17,148.58,119.37,269.84,267.69,269.84,36.37,0,71.07-7.29,102.71-20.49,34.74-14.49,62.36-42.1,77.45-76.58h0c.42-1,17.27-42.05-3.9-77.86Z"/>
  <path class="st1" d="M497.52,446.26c-7.29,6.63-12.36,10.37-12.36,10.37,0,0,11.66-33.1,1.6-69.21-13.71-49.23-75.09-94.2-171.42-89.35,0,0,119.88-100.66,203.68-8.13,55.41,61.17,6.47,130.88-21.51,156.32Z"/>
  <circle class="st1" cx="468.7" cy="197.41" r="46.62"/>
</svg>